<?xml version="1.0" encoding="utf-8"?>
<!-- Generator: Adobe Illustrator 16.0.0, SVG Export Plug-In . SVG Version: 6.00 Build 0)  -->
<!DOCTYPE svg PUBLIC "-//W3C//DTD SVG 1.1//EN" "http://www.w3.org/Graphics/SVG/1.1/DTD/svg11.dtd">
<svg version="1.1" id="Calque_1" xmlns="http://www.w3.org/2000/svg" xmlns:xlink="http://www.w3.org/1999/xlink" x="0px" y="0px"
	 width="155px" height="91px" viewBox="0 0 155 91" enable-background="new 0 0 155 91" xml:space="preserve">
<path id="Box" fill="#FFFFFF" stroke="#000000" stroke-width="3" stroke-miterlimit="10" d="M153.5,77.5c0,6.627-5.373,12-12,12
	h-128c-6.627,0-12-5.373-12-12v-64c0-6.627,5.373-12,12-12h128c6.627,0,12,5.373,12,12V77.5z"/>
<g id="Touche">
	<path id="C" d="M69.078,52.957c-0.187,1.905-0.494,3.445-0.924,4.619c-0.287,0.759-1.39,1.439-3.309,2.041
		c-2.091,0.645-4.498,0.967-7.219,0.967c-4.498,0-8.243-1.339-11.236-4.018c-3.037-2.721-4.555-6.209-4.555-10.463
		c0-4.34,1.568-7.949,4.705-10.828c3.022-2.778,6.674-4.168,10.957-4.168c3.036,0,5.586,0.365,7.648,1.096
		c1.833,0.645,2.786,1.246,2.857,1.805c0.157,1.089,0.236,2.857,0.236,5.307c0,0.401-0.365,0.638-1.096,0.709
		c-0.559,0.058-0.902-0.114-1.031-0.516c-0.759-2.449-1.772-4.146-3.04-5.092s-3.169-1.418-5.704-1.418
		c-3.18,0-5.772,1.053-7.777,3.158c-2.177,2.292-3.266,5.429-3.266,9.41c0,3.953,1.146,7.147,3.438,9.582
		c2.234,2.392,5.092,3.588,8.572,3.588c2.263,0,4.046-0.487,5.35-1.461c1.246-0.931,2.263-2.456,3.051-4.576
		c0.229-0.616,0.745-0.838,1.547-0.666C68.856,52.162,69.121,52.47,69.078,52.957z"/>
	<path id="T" d="M85.621,57.941c0,0.688-0.63,1.275-1.891,1.762c-1.117,0.43-2.249,0.645-3.395,0.645
		c-3.108,0-4.662-1.654-4.662-4.963v-7.777c0-0.988-0.079-1.593-0.236-1.815c-0.158-0.222-0.681-0.44-1.568-0.655
		c-0.229-0.057-0.344-0.279-0.344-0.666c0-0.415,0.086-0.666,0.258-0.752c1.547-0.759,2.893-2.12,4.039-4.082
		c0.157-0.272,0.465-0.358,0.924-0.258c0.315,0.101,0.479,0.287,0.494,0.559l0.086,2.686c0,0.201,0.036,0.344,0.107,0.43
		c0.1,0.129,0.329,0.193,0.688,0.193h4.791c0.272,0,0.272,0.337,0,1.01c-0.33,0.816-0.816,1.225-1.461,1.225h-3.244
		c-0.559,0-0.902,0.093-1.031,0.279c-0.101,0.129-0.15,0.48-0.15,1.053v7.025c0,1.776,0.157,2.9,0.473,3.373
		c0.415,0.602,1.382,0.902,2.9,0.902c0.501,0,1.11-0.082,1.826-0.247c0.716-0.165,1.096-0.247,1.139-0.247
		C85.535,57.619,85.621,57.726,85.621,57.941z"/>
	<path id="R" d="M102.207,44.728c0,1.733-0.501,2.6-1.504,2.6c-0.158,0-0.681-0.1-1.568-0.301c-0.888-0.2-1.54-0.301-1.955-0.301
		c-1.604,0-2.406,1.082-2.406,3.244v6.338c0,0.745,0.258,1.275,0.773,1.59c0.301,0.187,1.053,0.437,2.256,0.752
		c0.645,0.158,0.967,0.401,0.967,0.73c0,0.387-0.054,0.619-0.161,0.698c-0.107,0.079-0.376,0.097-0.806,0.054
		c-3.151-0.329-5.644-0.344-7.477-0.043c-0.573,0.1-0.938,0.1-1.096,0c-0.129-0.086-0.193-0.336-0.193-0.752
		c0-0.387,0.397-0.694,1.192-0.924c0.795-0.229,1.192-0.917,1.192-2.063v-6.896c0-0.902-0.118-1.511-0.354-1.826
		c-0.236-0.315-0.885-0.737-1.944-1.268l-0.129-0.064c-0.287-0.143-0.43-0.344-0.43-0.602c0-0.286,0.293-0.53,0.881-0.73
		c0.988-0.344,1.891-0.831,2.707-1.461c0.673-0.53,1.103-0.795,1.289-0.795c0.516,0,0.823,0.444,0.924,1.332
		c0.129,1.132,0.279,1.697,0.451,1.697c0.014,0,0.816-0.537,2.406-1.611c1.045-0.702,2.191-1.053,3.438-1.053
		C101.691,43.074,102.207,43.625,102.207,44.728z"/>
	<path id="L" d="M115.184,59.337c0,0.573-0.322,0.823-0.967,0.752c-1.977-0.186-4.426-0.157-7.348,0.086
		c-0.587,0.057-0.949,0.043-1.085-0.043c-0.136-0.086-0.204-0.322-0.204-0.709c0-0.344,0.39-0.634,1.171-0.87
		c0.78-0.236,1.171-0.941,1.171-2.116V36.994c0-1.16-0.168-2.012-0.505-2.557c-0.337-0.544-0.928-0.967-1.772-1.268
		c-0.444-0.157-0.666-0.379-0.666-0.666c0-0.43,0.322-0.752,0.967-0.967c0.974-0.315,1.983-0.802,3.029-1.461
		c0.859-0.516,1.403-0.773,1.633-0.773c0.53,0,0.795,0.365,0.795,1.096c0-0.057-0.029,0.659-0.086,2.148
		c-0.043,1.418-0.058,2.814-0.043,4.189l0.086,19.186c0,0.874,0.215,1.508,0.645,1.901c0.43,0.394,1.167,0.655,2.213,0.784
		C114.861,58.679,115.184,58.922,115.184,59.337z"/>
</g>
</svg>
